<svg width="496" height="24" viewBox="0 0 496 24" fill="none" xmlns="http://www.w3.org/2000/svg">
<line x1="2" y1="12.5" x2="496" y2="12.5" stroke="#808080" stroke-dasharray="6 6"/>
<path d="M10.0716 21.3705L14.4567 13.8736H22.0801C23.1386 13.8736 24 13.0321 24 11.9981C24 10.9641 23.1386 10.1226 22.0801 10.1226H14.4567L10.0716 2.62565C9.91573 2.36172 9.66662 2.16245 9.371 2.06529C9.07539 1.96812 8.75363 1.97974 8.46617 2.09796C8.17871 2.21618 7.94533 2.43286 7.80987 2.70731C7.67441 2.98175 7.6462 3.29507 7.73053 3.5884L9.64022 10.1226H3.94315L2.27922 8.09082C2.08733 7.8571 1.81592 7.69845 1.51437 7.64376C1.21283 7.58907 0.901203 7.64196 0.636221 7.79282C0.371241 7.94367 0.170521 8.18246 0.0705967 8.46571C-0.0293274 8.74897 -0.0218124 9.05785 0.0917759 9.33615L1.1823 11.9981L0.0917759 14.66C-0.022522 14.9385 -0.0303135 15.2478 0.0698223 15.5314C0.169958 15.815 0.371323 16.0538 0.637037 16.2042C0.902229 16.3548 1.21395 16.4075 1.51553 16.3527C1.81711 16.2978 2.08855 16.1391 2.2805 15.9054L3.94443 13.8736H9.6415L7.73053 20.4078L7.68061 20.7504C7.68077 21.026 7.77415 21.2938 7.94621 21.5122C8.11828 21.7306 8.3594 21.8874 8.63209 21.9581C8.90477 22.0289 9.19374 22.0096 9.45406 21.9033C9.71438 21.7971 9.93147 21.6098 10.0716 21.3705ZM21.7601 11.9981C21.7601 11.8323 21.8275 11.6733 21.9475 11.556C22.0675 11.4388 22.2303 11.3729 22.4001 11.3729C22.5698 11.3729 22.7326 11.4388 22.8526 11.556C22.9726 11.6733 23.04 11.8323 23.04 11.9981C23.04 12.1639 22.9726 12.3229 22.8526 12.4401C22.7326 12.5574 22.5698 12.6233 22.4001 12.6233C22.2303 12.6233 22.0675 12.5574 21.9475 12.4401C21.8275 12.3229 21.7601 12.1639 21.7601 11.9981Z" fill="#4F4F4F"/>
</svg>
