<svg width="591" height="580" viewBox="0 0 591 580" fill="none" xmlns="http://www.w3.org/2000/svg">
<path d="M78.1785 336.601L74.7462 330.904C74.4614 330.467 74.3022 329.96 74.286 329.438C74.2699 328.916 74.3974 328.4 74.6546 327.946C74.9118 327.492 75.2888 327.117 75.7445 326.863C76.2002 326.608 76.717 326.484 77.2385 326.503H82.3372C82.8259 326.488 83.3103 326.598 83.744 326.823C84.1778 327.049 84.5461 327.382 84.8136 327.791C85.0812 328.201 85.2389 328.672 85.2716 329.16C85.3044 329.647 85.211 330.135 85.0005 330.577L82.3657 336.63L78.1785 336.601Z" fill="#263238" stroke="#263238" stroke-width="1.00864" stroke-linecap="round" stroke-linejoin="round"/>
<path d="M82.3664 533.54H78.1792V332.953C78.1792 332.678 78.2334 332.406 78.3386 332.152C78.4438 331.898 78.598 331.667 78.7924 331.473C78.9868 331.279 79.2176 331.124 79.4716 331.019C79.7256 330.914 79.9979 330.86 80.2728 330.86C80.5477 330.86 80.82 330.914 81.074 331.019C81.328 331.124 81.5588 331.279 81.7532 331.473C81.9476 331.667 82.1018 331.898 82.207 332.152C82.3122 332.406 82.3664 332.678 82.3664 332.953V533.54Z" fill="white" stroke="#263238" stroke-width="1.00864" stroke-linecap="round" stroke-linejoin="round"/>
<path d="M31.8771 573.732C36.3842 573.732 40.0379 570.078 40.0379 565.571C40.0379 561.064 36.3842 557.41 31.8771 557.41C27.37 557.41 23.7163 561.064 23.7163 565.571C23.7163 570.078 27.37 573.732 31.8771 573.732Z" fill="#263238"/>
<path d="M75.4162 573.732C79.9232 573.732 83.5769 570.078 83.5769 565.571C83.5769 561.064 79.9232 557.41 75.4162 557.41C70.9091 557.41 67.2554 561.064 67.2554 565.571C67.2554 570.078 70.9091 573.732 75.4162 573.732Z" fill="#263238"/>
<path d="M31.8771 557.41H23.7163V565.571H31.8771V557.41Z" fill="#5C5C5C"/>
<path d="M83.6896 557.41H75.5288V565.571H83.6896V557.41Z" fill="#5C5C5C"/>
<path d="M29.9686 380.74H77.5518C79.2062 380.74 80.7929 381.397 81.9628 382.567C83.1326 383.737 83.7899 385.324 83.7899 386.978V557.414H23.7163V386.978C23.7163 386.158 23.8781 385.345 24.1925 384.588C24.5069 383.83 24.9677 383.141 25.5484 382.562C26.1292 381.983 26.8186 381.523 27.577 381.211C28.3355 380.898 29.1482 380.738 29.9686 380.74Z" fill="#BFBFBF" stroke="#263238" stroke-width="1.00864" stroke-miterlimit="10"/>
<path d="M64.6624 457.674H57.4985V491.385H64.6624V457.674Z" fill="#263238" stroke="#263238" stroke-width="1.00864" stroke-linecap="round" stroke-linejoin="round"/>
<path d="M64.6636 380.723H57.5425V377.148C57.5425 376.196 57.9206 375.283 58.5937 374.61C59.2668 373.937 60.1796 373.559 61.1315 373.559C61.6022 373.559 62.0682 373.652 62.5028 373.832C62.9375 374.013 63.3322 374.278 63.6643 374.611C63.9965 374.944 64.2595 375.34 64.4383 375.776C64.6171 376.211 64.7082 376.677 64.7063 377.148L64.6636 380.723Z" fill="#263238" stroke="#263238" stroke-width="1.00864" stroke-linecap="round" stroke-linejoin="round"/>
<path d="M23.7163 390.596C23.7163 390.083 34.4549 380.74 34.4549 380.74" stroke="#263238" stroke-width="1.00864" stroke-linecap="round" stroke-linejoin="round"/>
<path d="M82.9349 390.596C82.9349 390.083 72.1963 380.74 72.1963 380.74" stroke="#263238" stroke-width="1.00864" stroke-linecap="round" stroke-linejoin="round"/>
<path d="M23.7163 546.843C23.7163 547.356 34.4549 556.713 34.4549 556.713" stroke="#263238" stroke-width="1.00864" stroke-linecap="round" stroke-linejoin="round"/>
<path d="M83.805 547.855C83.805 548.368 73.0664 557.725 73.0664 557.725" stroke="#263238" stroke-width="1.00864" stroke-linecap="round" stroke-linejoin="round"/>
<path d="M57.4998 380.74H50.3359V556.887H57.4998V380.74Z" fill="#5C5C5C" stroke="#263238" stroke-width="1.00864" stroke-linecap="round" stroke-linejoin="round"/>
<path d="M1 573.349H590" stroke="#263238" stroke-linecap="round" stroke-linejoin="round"/>
<path d="M106.108 541.133C105.777 542.276 105.714 543.48 105.923 544.651C106.692 547.499 110.438 548.425 113.429 548.14C115.026 548.083 116.594 547.702 118.039 547.019C119.484 546.335 120.774 545.365 121.831 544.167C122.939 542.481 123.717 540.601 124.124 538.626C127.856 524.916 131.583 511.201 135.305 497.481C136.734 492.729 137.787 487.871 138.452 482.954C138.621 482.043 138.543 481.103 138.224 480.233C137.441 478.524 135.248 478.097 133.368 477.983C129.276 477.722 125.169 477.86 121.105 478.396C107.077 480.233 111.534 489.662 111.136 500.614C110.609 514.238 108.927 527.793 106.108 541.133Z" fill="white" stroke="#263238" stroke-width="1.20374" stroke-linecap="round" stroke-linejoin="round"/>
<path d="M123.74 568.122C122.129 569.669 120.178 570.815 118.043 571.469C105.51 576.268 91.9795 581.139 79.0049 577.778C77.6724 577.579 76.463 576.888 75.6152 575.841C75.1034 574.985 74.9069 573.978 75.0598 572.993C82.1809 574.673 98.7588 573.961 99.3997 573.249C99.9383 572.542 100.224 571.674 100.212 570.785C100.621 567.256 99.9083 563.688 98.1749 560.588C97.4696 559.446 96.543 558.457 95.4496 557.68C94.3563 556.902 93.1183 556.351 91.8086 556.059C93.8827 554.606 95.8226 552.972 97.6052 551.174C97.7049 551.074 97.8046 550.946 97.9328 550.832L98.5452 550.946C102.918 552.612 105.196 557.326 107.09 561.627C107.973 563.664 108.515 568.919 108.842 569.104C109.17 569.29 117.06 567.68 120.549 565.045C122.871 563.308 122.714 558.209 121.817 555.46C120.835 552.722 118.971 550.388 116.519 548.824C115.294 547.998 108.244 546.388 101.992 545.007C103.801 542.158 105.467 539.723 106.407 540.05C112.203 542.158 121.176 543.369 122.771 542.756C126.574 541.332 125.961 554.407 126.004 558.423C126.004 561.812 125.947 565.515 123.74 568.122Z" fill="#263238" stroke="#263238" stroke-width="1.20374" stroke-linecap="round" stroke-linejoin="round"/>
<path d="M98.1464 560.547C99.8798 563.647 100.592 567.215 100.183 570.744C100.196 571.633 99.9098 572.501 99.3712 573.208C98.7303 573.92 82.1097 574.632 75.0313 572.952C75.0247 572.885 75.0247 572.819 75.0313 572.752C75.6864 567.055 80.9133 563.182 85.6987 560.063C87.7211 558.766 89.772 557.442 91.7659 556.018C93.0781 556.308 94.3188 556.858 95.4147 557.636C96.5106 558.414 97.4395 559.404 98.1464 560.547Z" fill="white" stroke="#263238" stroke-width="1.20374" stroke-linecap="round" stroke-linejoin="round"/>
<path d="M120.565 565.002C117.075 567.622 109.171 569.274 108.858 569.061C108.544 568.847 107.989 563.62 107.106 561.583C105.24 557.311 102.961 552.568 98.5607 550.902L97.9482 550.788C99.4218 548.939 100.768 546.993 101.979 544.963C108.231 546.387 115.281 547.954 116.506 548.78C118.958 550.344 120.822 552.679 121.804 555.417C122.658 558.151 122.815 563.264 120.565 565.002Z" fill="white" stroke="#263238" stroke-width="1.20374" stroke-linecap="round" stroke-linejoin="round"/>
<path d="M89.7436 567.426C88.6176 568.054 87.3069 568.265 86.0406 568.024C85.6104 568.224 85.2248 568.508 84.9067 568.859C84.5886 569.211 84.3445 569.623 84.189 570.071C84.0335 570.519 83.9698 570.993 84.0016 571.466C84.0334 571.939 84.1602 572.401 84.3743 572.824C84.7488 573.302 85.2601 573.655 85.8402 573.836C86.4202 574.017 87.0416 574.016 87.6215 573.835C88.7894 573.508 90.5981 573.308 91.3387 572.411C94.1871 571.371 95.2411 574.676 98.7019 573.223" stroke="#263238" stroke-width="1.20374" stroke-linecap="round" stroke-linejoin="round"/>
<path d="M81.5115 568.979C80.9673 569.486 80.6025 570.155 80.4718 570.887C80.4356 571.43 80.5646 571.97 80.8417 572.438C81.1188 572.906 81.531 573.279 82.0242 573.508C82.9717 573.891 83.9971 574.043 85.015 573.949H84.5878" stroke="#263238" stroke-width="1.20374" stroke-linecap="round" stroke-linejoin="round"/>
<path d="M78.1928 568.481C77.8413 568.797 77.5739 569.196 77.4148 569.641C77.2557 570.086 77.2098 570.563 77.2813 571.031C77.3189 571.336 77.4178 571.631 77.5719 571.898C77.7261 572.165 77.9324 572.398 78.1786 572.583C78.4281 572.762 78.7216 572.87 79.0276 572.895C79.3337 572.92 79.6408 572.861 79.9161 572.725" stroke="#263238" stroke-width="1.20374" stroke-linecap="round" stroke-linejoin="round"/>
<path d="M238.917 541.133C239.255 542.275 239.318 543.48 239.102 544.651C238.333 547.499 234.601 548.425 231.596 548.14C229.999 548.083 228.43 547.702 226.986 547.019C225.541 546.335 224.251 545.365 223.193 544.167C222.086 542.481 221.308 540.601 220.9 538.626C217.169 524.916 213.442 511.201 209.72 497.481C208.297 492.727 207.245 487.87 206.573 482.954C206.404 482.043 206.482 481.103 206.801 480.233C207.584 478.524 209.777 478.097 211.657 477.983C215.748 477.722 219.855 477.86 223.92 478.396C237.948 480.233 233.49 489.662 233.889 500.614C234.416 514.238 236.098 527.793 238.917 541.133Z" fill="white" stroke="#263238" stroke-width="1.20374" stroke-linecap="round" stroke-linejoin="round"/>
<path d="M147.168 307.562C144.078 305.568 120.293 391.093 109.455 430.743C105.91 443.739 104.114 457.15 104.114 470.621V482.456C104.114 482.456 122.159 495.502 145.246 491.657L154.119 453.658L178.772 376.508L196.233 460.68L200.32 490.118C200.32 490.118 209.464 492.639 223.863 491.229C231.026 490.382 238.021 488.461 244.613 485.532L244.058 476.175C243.194 461.518 241.29 446.94 238.361 432.552L214.335 314.612C214.335 314.612 187.289 333.326 147.168 307.562Z" fill="#263238" stroke="#263238" stroke-width="1.20374" stroke-linecap="round" stroke-linejoin="round"/>
<path d="M161.682 203.894C161.682 203.894 142.54 194.195 130.477 194.195C116.804 194.195 91.4818 173.245 91.4818 173.245L69.5773 118.071L58.1836 121.161C58.1836 121.161 60.263 154.801 61.616 164.23C62.969 173.658 70.1613 192.087 71.0443 193.796C71.9273 195.505 76.1288 200.675 77.8378 201.103C79.5469 201.53 99.6996 216.527 104.414 219.105C109.128 221.683 127.985 232.82 127.985 232.82C127.985 232.82 137.413 256.818 138.695 261.532C139.976 266.246 144.263 287.168 144.691 290.572C145.118 293.976 136.046 327.687 137.769 330.678C139.492 333.669 161.197 331.134 178.345 331.134C195.493 331.134 216.129 338.91 217.839 333.754C219.548 328.599 212.854 267.101 212.854 267.101C212.854 267.101 221.855 285.53 225.672 291.54C229.489 297.551 235.542 305.683 239.828 305.683C244.115 305.683 298.592 272.242 298.592 272.242L296.028 261.532C288.095 265.136 279.741 267.73 271.161 269.251C259.169 270.961 242.876 275.247 242.876 275.247C242.876 275.247 225.9 227.935 217.867 219.39C212.412 213.564 187.588 207.526 183.686 207.526C179.783 207.526 161.682 203.894 161.682 203.894Z" fill="#748CAA"/>
<mask id="mask0_1114_60072" style="mask-type:luminance" maskUnits="userSpaceOnUse" x="58" y="118" width="241" height="218">
<path d="M161.682 203.891C161.682 203.891 142.541 194.192 130.477 194.192C116.805 194.192 91.4823 173.242 91.4823 173.242L69.5778 118.068L58.1841 121.158C58.1841 121.158 60.2634 154.798 61.6165 164.227C62.9695 173.655 70.1618 192.084 71.0448 193.793C71.9278 195.502 76.1292 200.672 77.8383 201.1C79.5474 201.527 99.7001 216.524 104.414 219.102C109.128 221.679 127.985 232.817 127.985 232.817C127.985 232.817 137.413 256.815 138.695 261.529C139.977 266.243 144.264 287.165 144.691 290.569C145.118 293.973 136.046 327.684 137.769 330.675C139.493 333.666 161.198 331.131 178.345 331.131C195.493 331.131 216.13 338.907 217.839 333.751C219.548 328.596 212.854 267.098 212.854 267.098C212.854 267.098 221.855 285.527 225.672 291.537C229.489 297.548 235.542 305.68 239.829 305.68C244.116 305.68 298.592 272.239 298.592 272.239L296.029 261.529C288.096 265.133 279.741 267.726 271.162 269.248C259.17 270.957 242.877 275.244 242.877 275.244C242.877 275.244 225.9 227.932 217.868 219.386C212.413 213.561 187.589 207.523 183.686 207.523C179.784 207.523 161.682 203.891 161.682 203.891Z" fill="white"/>
</mask>
<g mask="url(#mask0_1114_60072)">
<g opacity="0.2">
<path d="M123.656 210.64L135.135 228.3C138.582 233.598 142.028 238.896 145.632 244.066C160.268 265.088 177.548 284.138 197.046 300.75C193.305 301.374 189.464 300.909 185.98 299.411C188.52 304.346 192.678 308.257 197.758 310.492C185.678 307.228 174.277 301.836 164.089 294.569C163.487 295.437 163.147 296.459 163.109 297.514C163.071 298.57 163.337 299.614 163.876 300.522C164.97 302.309 166.425 303.846 168.148 305.037C174.135 309.663 180.473 313.815 187.105 317.456L170.014 313.839C169.05 313.503 168.001 313.503 167.038 313.839C165.499 314.594 165.357 316.915 166.325 318.339C167.452 319.674 168.933 320.662 170.598 321.188L185.396 327.54C187.205 328.323 189.255 329.391 189.569 331.342L141.8 331.257C141.171 331.34 140.532 331.295 139.921 331.126C139.309 330.958 138.737 330.668 138.24 330.274C137.596 329.431 137.278 328.385 137.343 327.326C137.001 316.986 142.413 307.302 143.396 297.019C144.307 287.69 141.63 271.739 138.909 262.837C135.829 251.668 131.862 240.761 127.046 230.223C124.348 224.066 123.185 217.346 123.656 210.64Z" fill="black"/>
</g>
<path opacity="0.2" d="M219.25 249.778C219.25 249.778 209.879 264.732 216.401 275.641C222.924 286.551 216.758 271.127 219.25 249.778Z" fill="black"/>
<path opacity="0.2" d="M69.1932 188.793C67.7253 186.483 66.7552 183.893 66.3447 181.187C66.1853 180.489 66.245 179.758 66.5156 179.094C67.2135 177.67 89.7731 197.822 99.586 205.841C99.6969 205.939 99.8377 205.996 99.9856 206.004C100.133 206.012 100.28 205.969 100.4 205.884C100.521 205.798 100.609 205.673 100.65 205.531C100.691 205.389 100.682 205.237 100.626 205.1C99.7129 202.804 99.0492 200.417 98.646 197.979C100.583 201.369 106.921 207.179 110.966 210.897C111.154 211.065 111.387 211.177 111.637 211.217C111.886 211.258 112.142 211.226 112.374 211.126C112.607 211.025 112.805 210.86 112.947 210.651C113.088 210.441 113.167 210.195 113.173 209.942C113.173 207.208 113.315 202.237 113.173 200.827C120.878 216.593 124.809 223.615 128.256 233.713C128.441 234.168 124.367 231.121 122.758 230.109C108.373 221.165 90.414 208.746 76.0152 199.788C71.6143 197.025 69.1932 188.793 69.1932 188.793Z" fill="black"/>
</g>
<path d="M161.682 203.894C161.682 203.894 142.54 194.195 130.477 194.195C116.804 194.195 91.4818 173.245 91.4818 173.245L69.5773 118.071L58.1836 121.161C58.1836 121.161 60.263 154.801 61.616 164.23C62.969 173.658 70.1613 192.087 71.0443 193.796C71.9273 195.505 76.1288 200.675 77.8378 201.103C79.5469 201.53 99.6996 216.527 104.414 219.105C109.128 221.683 127.985 232.82 127.985 232.82C127.985 232.82 137.413 256.818 138.695 261.532C139.976 266.246 144.263 287.168 144.691 290.572C145.118 293.976 136.046 327.687 137.769 330.678C139.492 333.669 161.197 331.134 178.345 331.134C195.493 331.134 216.129 338.91 217.839 333.754C219.548 328.599 212.854 267.101 212.854 267.101C212.854 267.101 221.855 285.53 225.672 291.54C229.489 297.551 235.542 305.683 239.828 305.683C244.115 305.683 298.592 272.242 298.592 272.242L296.028 261.532C288.095 265.136 279.741 267.73 271.161 269.251C259.169 270.961 242.876 275.247 242.876 275.247C242.876 275.247 225.9 227.935 217.867 219.39C212.412 213.564 187.588 207.526 183.686 207.526C179.783 207.526 161.682 203.894 161.682 203.894Z" stroke="#263238" stroke-width="1.20374" stroke-linecap="round" stroke-linejoin="round"/>
<path d="M152.881 274.307C152.881 274.307 176.025 300.883 200.023 306.879" stroke="#263238" stroke-width="1.20374" stroke-linecap="round" stroke-linejoin="round"/>
<path d="M217.612 234.739L218.367 229.726" stroke="#263238" stroke-width="1.20374" stroke-linecap="round" stroke-linejoin="round"/>
<path d="M213.225 263.581L216.871 239.569" stroke="#263238" stroke-width="1.20374" stroke-linecap="round" stroke-linejoin="round"/>
<path d="M213.652 259.736L222.226 240.865" stroke="#263238" stroke-width="1.20374" stroke-linecap="round" stroke-linejoin="round"/>
<path d="M288.594 265.276L292.667 275.644" stroke="#263238" stroke-width="1.20374" stroke-linecap="round" stroke-linejoin="round"/>
<path d="M58.54 128.964L71.9704 125.233" stroke="#263238" stroke-width="1.20374" stroke-linecap="round" stroke-linejoin="round"/>
<path d="M122.274 200.375L121.505 196.729" stroke="#263238" stroke-width="1.20374" stroke-linecap="round" stroke-linejoin="round"/>
<path d="M111.863 193.211L109.499 188.155" stroke="#263238" stroke-width="1.20374" stroke-linecap="round" stroke-linejoin="round"/>
<path d="M127.501 226.723L113.8 197.356" stroke="#263238" stroke-width="1.20374" stroke-linecap="round" stroke-linejoin="round"/>
<path d="M91.1553 171.862C91.1553 171.862 95.4279 188.953 101.011 197.584" stroke="#263238" stroke-width="1.20374" stroke-linecap="round" stroke-linejoin="round"/>
<path d="M243.205 274.348C240.941 276.444 239.176 279.022 238.042 281.891C236.908 284.761 236.434 287.848 236.653 290.926" stroke="#263238" stroke-width="1.20374" stroke-linecap="round" stroke-linejoin="round"/>
<path d="M154.218 302.023C164.256 310.382 176.313 315.961 189.182 318.202" stroke="#263238" stroke-width="1.20374" stroke-linecap="round" stroke-linejoin="round"/>
<path d="M158.036 186.875C158.036 186.875 161.383 203.966 162.537 206.814C163.69 209.662 164.659 221.626 175.17 221.626C184.712 221.626 183.416 210.033 183.715 207.483C184.014 204.934 184.042 195.093 184.042 195.093C184.042 195.093 174.344 197.671 169.8 194.523C165.257 191.376 161.255 183.699 159.503 183.699C157.751 183.699 158.036 186.875 158.036 186.875Z" fill="white"/>
<path d="M169.743 194.564C165.172 191.431 161.198 183.74 159.46 183.74C157.723 183.74 158.036 186.873 158.036 186.873C158.036 186.873 159.759 194.892 161.056 200.361C164.245 203.389 168.259 205.406 172.592 206.157C176.531 206.467 180.461 205.465 183.772 203.309C184.014 200.56 184.014 195.148 184.014 195.148C184.014 195.148 174.315 197.826 169.743 194.564Z" fill="#263238"/>
<path d="M158.036 186.875C158.036 186.875 161.383 203.966 162.537 206.814C163.69 209.662 164.659 221.626 175.17 221.626C184.712 221.626 183.416 210.033 183.715 207.483C184.014 204.934 184.042 195.093 184.042 195.093C184.042 195.093 174.344 197.671 169.8 194.523C165.257 191.376 161.255 183.699 159.503 183.699C157.751 183.699 158.036 186.875 158.036 186.875Z" stroke="#263238" stroke-width="1.20374" stroke-linecap="round" stroke-linejoin="round"/>
<path d="M192.004 152.907C192.004 152.907 192.858 166.893 193.713 173.173C194.567 179.454 194.852 186.889 191.705 191.688C188.557 196.488 185.438 199.664 178.887 200.533C172.335 201.401 164.06 197.385 161.483 193.411C158.905 189.438 156.626 185.422 156.626 185.422C154.737 185.365 152.886 184.878 151.214 183.997C148.636 182.573 146.357 176.008 147.226 173.43C148.095 170.852 152.368 170.581 152.368 170.581C152.368 170.581 150.374 161.737 149.22 155.741C148.63 152.611 149.245 149.374 150.94 146.677C152.636 143.981 155.287 142.024 158.364 141.2C165.485 138.907 176.052 139.191 181.479 142.054C186.905 144.917 190.579 148.064 192.004 152.907Z" fill="white"/>
<path d="M192.004 152.907C192.004 152.907 192.858 166.893 193.713 173.173C194.567 179.454 194.852 186.889 191.704 191.688C188.557 196.488 185.438 199.664 178.886 200.533C172.335 201.401 164.06 197.385 161.482 193.411C158.905 189.438 156.626 185.422 156.626 185.422C154.737 185.365 152.886 184.878 151.214 183.997C148.636 182.573 146.756 176.107 147.226 173.43C148.308 167.163 153.364 172.589 153.364 172.589C153.364 172.589 150.374 161.737 149.22 155.741C148.63 152.611 149.245 149.374 150.94 146.677C152.635 143.981 155.287 142.024 158.363 141.2C165.485 138.907 176.052 139.191 181.479 142.054C186.905 144.917 190.579 148.064 192.004 152.907Z" stroke="#263238" stroke-width="1.20374" stroke-linecap="round" stroke-linejoin="round"/>
<path d="M188.001 159.468C186.984 159.339 185.95 159.425 184.969 159.722C183.987 160.019 183.079 160.52 182.304 161.192C179.726 163.47 183.443 174.309 183.443 176.018C183.443 177.727 178.017 179.151 178.017 179.151" stroke="#263238" stroke-width="1.20374" stroke-linecap="round" stroke-linejoin="round"/>
<path d="M172.777 164.514C171.831 163.13 170.373 162.178 168.725 161.868C167.077 161.558 165.374 161.916 163.99 162.862L163.52 163.203" stroke="#263238" stroke-width="1.20374" stroke-linecap="round" stroke-linejoin="round"/>
<path d="M187.859 169.339C188.001 170.578 187.446 171.689 186.591 171.788C185.737 171.888 184.868 170.977 184.725 169.723C184.583 168.47 185.138 167.373 186.007 167.259C186.876 167.145 187.688 168.014 187.859 169.339Z" fill="#263238"/>
<path d="M295.844 260.832C295.844 260.832 297.981 252.287 299.704 250.122C301.427 247.957 305.273 246.689 306.554 244.112C307.836 241.534 309.559 238.116 310.827 239.839C311.441 240.511 311.844 241.348 311.985 242.247C312.127 243.146 312.002 244.067 311.625 244.895C310.896 246.624 309.853 248.204 308.548 249.552C307.752 250.374 307.166 251.375 306.839 252.472C306.826 252.833 306.723 253.185 306.54 253.497L332.076 243.528C332.45 243.707 332.775 243.974 333.023 244.306C333.272 244.639 333.435 245.026 333.501 245.436C333.785 246.86 331.905 247.758 331.037 248.057C330.168 248.356 319.515 253.198 319.515 253.198L320.683 255.078L331.706 254.095C331.951 254.084 332.196 254.121 332.427 254.204C332.658 254.287 332.87 254.415 333.051 254.581C333.232 254.746 333.379 254.946 333.483 255.168C333.587 255.39 333.646 255.63 333.657 255.876C333.677 256.309 333.545 256.736 333.286 257.084C333.026 257.432 332.654 257.679 332.233 257.784L321.409 259.764L320.982 261.644L330.581 263.367C331.004 263.437 331.385 263.663 331.648 264.001C331.912 264.338 332.039 264.763 332.005 265.19C331.959 265.586 331.768 265.952 331.468 266.215C331.168 266.478 330.781 266.62 330.382 266.614L320.811 266.358C323.773 268.067 324.941 268.651 327.932 270.274C332.646 272.226 330.439 275.245 327.633 274.547C326.337 274.291 319.002 270.816 319.002 270.816C319.002 270.816 315.57 271.1 312.593 271.528C309.616 271.955 305.728 272.852 304.119 272.852C302.165 272.613 300.236 272.208 298.351 271.642L295.844 260.832Z" fill="white" stroke="#263238" stroke-width="1.20374" stroke-linecap="round" stroke-linejoin="round"/>
<path d="M330.992 237.292L325.11 236.608C324.94 236.584 324.766 236.607 324.608 236.675C324.45 236.742 324.313 236.852 324.213 236.992C324.083 237.171 323.919 237.323 323.731 237.438C323.542 237.553 323.333 237.631 323.115 237.665C322.897 237.699 322.674 237.69 322.459 237.639C322.244 237.587 322.042 237.493 321.863 237.363C321.606 237.182 321.408 236.929 321.293 236.636C321.232 236.475 321.125 236.334 320.987 236.231C320.848 236.127 320.683 236.065 320.51 236.052L314.642 235.355C314.479 235.331 314.312 235.339 314.151 235.38C313.991 235.42 313.84 235.493 313.708 235.592C313.575 235.691 313.464 235.816 313.38 235.958C313.296 236.101 313.241 236.259 313.218 236.423L309.316 269.607C309.29 269.773 309.298 269.943 309.339 270.106C309.381 270.269 309.455 270.422 309.558 270.555C309.661 270.688 309.789 270.799 309.936 270.881C310.083 270.963 310.245 271.014 310.412 271.031L326.762 272.954C326.927 272.984 327.096 272.98 327.259 272.942C327.422 272.904 327.575 272.832 327.709 272.732C327.842 272.632 327.954 272.505 328.036 272.359C328.118 272.213 328.17 272.052 328.187 271.886L332.103 238.716C332.129 238.549 332.121 238.378 332.078 238.214C332.036 238.05 331.96 237.897 331.856 237.763C331.752 237.63 331.621 237.519 331.473 237.438C331.324 237.357 331.161 237.307 330.992 237.292Z" fill="#748CAA"/>
<path d="M332.773 238.359C332.801 238.136 332.784 237.909 332.724 237.691C332.664 237.474 332.561 237.271 332.422 237.094C332.283 236.916 332.11 236.768 331.914 236.658C331.717 236.548 331.501 236.477 331.277 236.451L314.699 234.499C314.476 234.472 314.249 234.488 314.032 234.548C313.815 234.609 313.612 234.711 313.434 234.85C313.257 234.989 313.109 235.162 312.998 235.358C312.888 235.555 312.817 235.771 312.791 235.995L308.561 270.874C308.504 271.313 308.621 271.757 308.887 272.111C309.153 272.465 309.547 272.701 309.985 272.768L326.691 274.734C326.915 274.762 327.142 274.745 327.359 274.685C327.576 274.625 327.779 274.522 327.957 274.383C328.134 274.244 328.282 274.071 328.393 273.875C328.503 273.678 328.573 273.462 328.6 273.238L332.773 238.359ZM328.173 271.885C328.156 272.052 328.104 272.213 328.022 272.358C327.94 272.504 327.828 272.631 327.695 272.731C327.561 272.832 327.408 272.903 327.245 272.942C327.082 272.98 326.913 272.984 326.748 272.953L310.398 271.031C310.231 271.013 310.069 270.962 309.922 270.88C309.775 270.798 309.647 270.687 309.544 270.554C309.441 270.421 309.367 270.268 309.325 270.105C309.284 269.942 309.276 269.773 309.302 269.606L313.204 236.422C313.227 236.258 313.282 236.1 313.366 235.958C313.45 235.815 313.561 235.691 313.694 235.591C313.826 235.492 313.977 235.42 314.137 235.379C314.298 235.338 314.465 235.33 314.628 235.354L320.51 236.052C320.68 236.067 320.843 236.13 320.978 236.234C321.114 236.337 321.219 236.476 321.279 236.636C321.362 236.841 321.485 237.028 321.64 237.185C321.795 237.343 321.98 237.468 322.184 237.554C322.388 237.64 322.606 237.685 322.827 237.686C323.049 237.688 323.268 237.645 323.473 237.562C323.76 237.438 324.01 237.241 324.199 236.992C324.297 236.853 324.431 236.744 324.587 236.676C324.742 236.608 324.914 236.584 325.082 236.607L330.964 237.291C331.131 237.308 331.293 237.359 331.44 237.441C331.587 237.523 331.716 237.634 331.818 237.768C331.921 237.901 331.995 238.053 332.037 238.216C332.079 238.379 332.087 238.549 332.061 238.715L328.173 271.885Z" fill="#748CAA" stroke="#263238" stroke-width="1.20374" stroke-linecap="round" stroke-linejoin="round"/>
<g opacity="0.2">
<path d="M327.277 235.992L311.738 272.951L316.125 273.463L331.236 236.462L327.277 235.992Z" fill="white"/>
</g>
<g opacity="0.2">
<path d="M325.625 235.797L309.474 272.698L310.115 272.769L326.052 235.853L325.625 235.797Z" fill="white"/>
</g>
<path d="M167.835 167.262C168.808 167.525 169.696 168.036 170.412 168.745C171.129 169.454 171.649 170.337 171.922 171.307C171.312 170.825 170.59 170.505 169.824 170.375C169.057 170.246 168.27 170.312 167.536 170.567" stroke="#263238" stroke-width="1.20374" stroke-linecap="round" stroke-linejoin="round"/>
<path d="M168.774 182.672C169.457 183.776 170.447 184.658 171.623 185.207C173.295 186.175 175.137 186.813 177.049 187.087C178.997 187.362 180.982 187.044 182.746 186.176" stroke="#263238" stroke-width="1.20374" stroke-linecap="round" stroke-linejoin="round"/>
<path d="M147.397 143.349C146.371 145.708 145.713 148.211 145.446 150.769C144.563 157.193 144.734 164.129 148.195 169.598C148.436 170.098 148.851 170.493 149.363 170.708C149.918 170.879 150.53 170.708 151.086 170.822C151.553 171.033 151.945 171.381 152.211 171.819L155.415 176.092C153.671 171.954 153.033 167.434 153.564 162.975C154.117 158.505 156.118 154.338 159.261 151.111C159.441 152.136 159.859 153.105 160.479 153.941C161.1 154.776 161.907 155.456 162.836 155.925C164.699 156.843 166.692 157.468 168.746 157.777C166.815 156.206 165.249 154.233 164.16 151.994C167.123 154.658 171.481 154.843 175.468 154.843C179.456 154.843 183.786 154.942 186.862 157.435C189.194 159.638 190.702 162.573 191.135 165.752C191.676 162.79 193.599 160.312 194.923 157.606C196.05 155.274 196.731 152.753 196.931 150.171C197.12 148.409 196.931 146.627 196.376 144.944C195.797 143.442 194.958 142.054 193.898 140.843C189.512 135.521 183.513 131.772 176.807 130.161C171.112 128.726 165.084 129.494 159.93 132.312C158.747 133.136 157.611 134.025 156.526 134.975C155.472 135.758 154.233 136.157 153.122 136.869C150.656 138.463 148.675 140.705 147.397 143.349Z" fill="#263238"/>
<path d="M69.4354 102.914L68.1251 104.339C67.7761 104.697 67.3331 104.95 66.8469 105.068C66.3608 105.187 65.8511 105.166 65.3763 105.008L64.123 104.453C64.123 102.914 65.946 100.864 66.7009 99.5106C66.865 99.1665 67.1278 98.8789 67.4557 98.6845C67.7406 98.569 68.0455 98.511 68.353 98.5136H70.8596H72.1129C72.3443 98.4947 72.5753 98.555 72.768 98.6845C72.9056 98.8642 72.9984 99.0742 73.0386 99.2969C73.8157 102.487 73.883 105.809 73.2358 109.028C72.5886 112.246 71.2426 115.284 69.2929 117.926C69.2929 117.926 60.4485 120.532 58.5686 122.583L50.7781 104.894C49.539 102.131 49.653 100.223 50.593 98.6845C52.6581 95.2806 56.5747 89.4698 59.3234 89.5837C62.0722 89.6977 67.5554 98.7415 67.5554 98.7415L60.2207 105.962C60.2207 105.962 52.2735 100.265 55.3356 100.265H58.3265L58.6398 101.476L61.0752 98.7272C60.4052 98.2599 59.8882 97.6051 59.5892 96.8449C59.2902 96.0847 59.2225 95.2531 59.3946 94.4546" fill="white"/>
<path d="M69.4354 102.914L68.1251 104.339C67.7761 104.697 67.3331 104.95 66.8469 105.068C66.3608 105.187 65.8511 105.166 65.3763 105.008L64.123 104.453C64.123 102.914 65.946 100.864 66.7009 99.5106C66.865 99.1665 67.1278 98.8789 67.4557 98.6845C67.7406 98.569 68.0455 98.511 68.353 98.5136H70.8596H72.1129C72.3443 98.4947 72.5753 98.555 72.768 98.6845C72.9056 98.8642 72.9984 99.0742 73.0386 99.2969C73.8157 102.487 73.883 105.809 73.2358 109.028C72.5886 112.246 71.2426 115.284 69.2929 117.926C69.2929 117.926 60.4485 120.532 58.5686 122.583L50.7781 104.894C49.539 102.131 49.653 100.223 50.593 98.6845C52.6581 95.2806 56.5747 89.4698 59.3234 89.5837C62.0722 89.6977 67.5554 98.7415 67.5554 98.7415L60.2207 105.962C60.2207 105.962 52.2735 100.265 55.3356 100.265H58.3265L58.6398 101.476L61.0752 98.7272C60.4052 98.2599 59.8882 97.6051 59.5892 96.8449C59.2902 96.0847 59.2225 95.2531 59.3946 94.4546" stroke="#263238" stroke-width="1.20374" stroke-linecap="round" stroke-linejoin="round"/>
<path d="M60.7476 89.5852C61.4027 89.4 61.5451 88.4458 62.1718 88.161C62.7984 87.8761 63.596 88.4316 64.009 88.9728L64.1657 89.1579C66.4839 91.7477 68.6705 94.4524 70.7171 97.2617C70.9629 97.5569 71.1295 97.9098 71.2013 98.2872C71.2219 98.3617 71.2219 98.4405 71.2013 98.515" stroke="#263238" stroke-width="1.20374" stroke-linecap="round" stroke-linejoin="round"/>
<path d="M65.9887 105.467H65.3621C65.2435 105.574 65.1147 105.669 64.9775 105.752C64.6927 105.965 63.6388 105.395 63.2827 105.481C62.3 105.723 61.773 105.908 61.6733 104.911" stroke="#263238" stroke-width="1.20374" stroke-linecap="round" stroke-linejoin="round"/>
<path d="M64.1938 89.1574C64.4644 88.8013 64.6496 88.3456 65.0626 88.1604C65.7178 87.8471 66.4868 88.431 66.8999 88.9722C69.2641 91.6213 71.5143 94.3843 73.6079 97.2612C73.8588 97.5531 74.0261 97.9074 74.0922 98.2866C74.07 98.5614 73.9931 98.829 73.8659 99.0736C73.7387 99.3182 73.5638 99.5349 73.3516 99.7108" stroke="#263238" stroke-width="1.20374" stroke-linecap="round" stroke-linejoin="round"/>
<path d="M66.5447 105.252C64.6676 108.085 63.8413 111.486 64.209 114.865" stroke="#263238" stroke-width="1.20374" stroke-linecap="round" stroke-linejoin="round"/>
<path d="M150.373 169.611L155.928 140.842L158.833 140.671" stroke="#BFBFBF" stroke-width="1.20374" stroke-linecap="round" stroke-linejoin="round"/>
<path d="M175.453 140.67C175.453 142.28 172.291 147.72 167.136 147.72C160.328 147.72 158.833 142.28 158.833 140.67C158.833 139.061 163.02 137.751 168.175 137.751C173.331 137.751 175.453 139.061 175.453 140.67Z" stroke="#BFBFBF" stroke-width="1.20374" stroke-linecap="round" stroke-linejoin="round"/>
<path d="M178.956 140.67C178.956 142.28 182.118 147.72 187.273 147.72C194.081 147.72 195.577 142.28 195.577 140.67C195.577 139.061 191.389 137.751 186.234 137.751C181.078 137.751 178.956 139.061 178.956 140.67Z" stroke="#BFBFBF" stroke-width="1.20374" stroke-linecap="round" stroke-linejoin="round"/>
<path d="M175.282 139.932H178.601" stroke="#BFBFBF" stroke-width="1.20374" stroke-linecap="round" stroke-linejoin="round"/>
<path d="M179.57 331.147C179.57 331.147 179.57 362.865 178.772 376.509" stroke="#BFBFBF" stroke-width="1.20374" stroke-linecap="round" stroke-linejoin="round"/>
<path d="M179.228 364.746C182.319 363.934 187.773 361.898 188.998 358.864C190.223 355.83 189.183 331.619 189.183 331.619" stroke="#BFBFBF" stroke-width="1.20374" stroke-linecap="round" stroke-linejoin="round"/>
<path d="M110.595 425.958C109.46 432.458 108.879 439.043 108.857 445.641C108.831 452.255 110.482 458.767 113.657 464.569" stroke="#BFBFBF" stroke-width="1.20374" stroke-linecap="round" stroke-linejoin="round"/>
<path d="M240.198 441.497C240.216 450.188 238.441 458.789 234.985 466.762C233.944 469.707 232.062 472.282 229.573 474.168" stroke="#BFBFBF" stroke-width="1.20374" stroke-linecap="round" stroke-linejoin="round"/>
<path d="M110.723 457.801C109.591 466.594 109.073 475.455 109.171 484.32" stroke="#BFBFBF" stroke-width="1.20374" stroke-linecap="round" stroke-linejoin="round"/>
<path d="M116.192 425.958C115.85 427.568 115.523 429.163 115.195 430.758" stroke="#BFBFBF" stroke-width="1.20374" stroke-linecap="round" stroke-linejoin="round"/>
<path d="M142.54 333.128C139.948 341.26 127.301 376.951 118.257 417.428" stroke="#BFBFBF" stroke-width="1.20374" stroke-linecap="round" stroke-linejoin="round"/>
<path d="M221.285 568.122C222.89 569.675 224.843 570.822 226.982 571.469C239.515 576.268 253.045 581.139 266.019 577.778C267.351 577.577 268.559 576.886 269.409 575.841C269.921 574.985 270.117 573.978 269.964 572.993C262.843 574.673 246.265 573.961 245.61 573.249C245.076 572.54 244.795 571.673 244.813 570.785C244.403 567.256 245.116 563.688 246.849 560.588C247.555 559.446 248.481 558.457 249.575 557.68C250.668 556.902 251.906 556.351 253.216 556.059C251.142 554.606 249.202 552.972 247.419 551.174L247.092 550.832L246.479 550.946C242.107 552.612 239.828 557.326 237.934 561.627C237.065 563.664 236.51 568.919 236.196 569.104C235.883 569.29 227.979 567.68 224.475 565.045C222.168 563.308 222.324 558.209 223.207 555.46C224.199 552.728 226.06 550.396 228.505 548.824C229.745 547.998 236.794 546.388 243.047 545.007C241.224 542.158 239.572 539.723 238.617 540.05C232.835 542.158 223.863 543.369 222.267 542.756C218.465 541.332 219.077 554.407 219.034 558.423C219.02 561.812 219.077 565.515 221.285 568.122Z" fill="#263238" stroke="#263238" stroke-width="1.20374" stroke-linecap="round" stroke-linejoin="round"/>
<path d="M246.878 560.547C245.144 563.647 244.432 567.215 244.841 570.744C244.823 571.632 245.104 572.499 245.639 573.208C246.294 573.92 262.915 574.632 269.993 572.952C270.006 572.886 270.006 572.818 269.993 572.752C269.352 567.055 264.125 563.182 259.34 560.063C257.317 558.766 255.252 557.442 253.273 556.018C251.958 556.306 250.714 556.856 249.616 557.634C248.517 558.412 247.586 559.402 246.878 560.547Z" fill="white" stroke="#263238" stroke-width="1.20374" stroke-linecap="round" stroke-linejoin="round"/>
<path d="M224.532 565.002C228.035 567.622 235.926 569.274 236.253 569.061C236.581 568.847 237.122 563.62 237.991 561.583C239.871 557.311 242.149 552.568 246.536 550.902L247.148 550.788C245.675 548.939 244.328 546.993 243.118 544.963C236.866 546.387 229.816 547.954 228.577 548.78C226.131 550.352 224.27 552.684 223.278 555.417C222.367 558.151 222.21 563.264 224.532 565.002Z" fill="white" stroke="#263238" stroke-width="1.20374" stroke-linecap="round" stroke-linejoin="round"/>
<path d="M255.281 567.426C256.407 568.054 257.717 568.265 258.984 568.024C259.413 568.225 259.797 568.51 260.113 568.862C260.43 569.214 260.673 569.626 260.827 570.074C260.981 570.522 261.043 570.996 261.011 571.468C260.978 571.941 260.85 572.402 260.636 572.824C260.263 573.304 259.751 573.658 259.171 573.839C258.59 574.02 257.968 574.019 257.389 573.835C256.221 573.508 254.426 573.308 253.686 572.411C250.837 571.371 249.783 574.676 246.308 573.223" stroke="#263238" stroke-width="1.20374" stroke-linecap="round" stroke-linejoin="round"/>
<path d="M263.314 568.979C263.858 569.486 264.223 570.155 264.353 570.887C264.389 571.43 264.261 571.97 263.983 572.438C263.706 572.906 263.294 573.279 262.801 573.508C261.853 573.891 260.828 574.043 259.81 573.949H260.237" stroke="#263238" stroke-width="1.20374" stroke-linecap="round" stroke-linejoin="round"/>
<path d="M266.632 568.481C266.984 568.797 267.251 569.196 267.41 569.641C267.57 570.086 267.615 570.563 267.544 571.031C267.506 571.336 267.408 571.631 267.253 571.898C267.099 572.165 266.893 572.398 266.647 572.583C266.397 572.762 266.104 572.87 265.798 572.895C265.492 572.92 265.185 572.861 264.909 572.725" stroke="#263238" stroke-width="1.20374" stroke-linecap="round" stroke-linejoin="round"/>
<path d="M359.083 77.8784C358.004 77.1804 356.814 76.6699 355.565 76.3687L351.72 75.3433L343.445 80.1714L366.702 87.2925C367.242 87.4609 367.812 87.5137 368.374 87.4474C368.936 87.3812 369.478 87.1974 369.964 86.9079L370.733 86.4664C370.836 86.4008 370.921 86.3103 370.979 86.2032C371.038 86.0962 371.069 85.9761 371.069 85.854C371.069 85.7319 371.038 85.6118 370.979 85.5048C370.921 85.3977 370.836 85.3072 370.733 85.2416L359.083 77.8784Z" fill="white"/>
<path d="M359.083 77.8784C358.004 77.1804 356.814 76.6699 355.565 76.3687L351.72 75.3433L343.445 80.1714L366.702 87.2925C367.242 87.4609 367.812 87.5137 368.374 87.4474C368.936 87.3812 369.478 87.1974 369.964 86.9079L370.733 86.4664C370.836 86.4008 370.921 86.3103 370.979 86.2032C371.038 86.0962 371.069 85.9761 371.069 85.854C371.069 85.7319 371.038 85.6118 370.979 85.5048C370.921 85.3977 370.836 85.3072 370.733 85.2416L359.083 77.8784Z" fill="white" stroke="#263238" stroke-width="1.11813" stroke-linecap="round" stroke-linejoin="round"/>
<path d="M355.991 58.9943L341.422 25.3827L333.503 30.0114L338.915 70.445L357.003 60.746L355.991 58.9943Z" fill="white" stroke="#263238" stroke-width="1.11813" stroke-linecap="round" stroke-linejoin="round"/>
<path d="M409.686 63.8377L484.357 83.1644C485.458 83.4453 486.617 83.3958 487.69 83.022L489.741 82.2956C490.022 82.1991 490.271 82.0273 490.461 81.799C490.651 81.5708 490.775 81.2948 490.819 81.001C490.863 80.7073 490.825 80.4071 490.711 80.1331C490.596 79.8592 490.408 79.6219 490.168 79.4472C489.384 78.8738 488.572 78.3414 487.733 77.8521C483.46 75.3027 436.603 48.1286 436.603 48.1286L409.686 63.8377Z" fill="white" stroke="#263238" stroke-width="1.11813" stroke-linecap="round" stroke-linejoin="round"/>
<path d="M327.593 78.4768C327.4 78.9996 327.328 79.5593 327.382 80.1141C327.436 80.6688 327.615 81.204 327.905 81.6796C328.196 82.1553 328.59 82.5588 329.059 82.8601C329.528 83.1613 330.059 83.3524 330.613 83.4189C340.468 84.601 375.646 86.2673 421.079 59.8196C472.65 29.7686 483.873 17.6627 481.067 10.4277C480.827 9.83085 480.49 9.27756 480.07 8.78981C477.45 5.67077 465.543 -6.0648 442.898 7.13772L339.044 67.7097C339.044 67.7097 329.701 72.9366 327.593 78.4768Z" fill="white" stroke="#263238" stroke-width="1.11813" stroke-linecap="round" stroke-linejoin="round"/>
<path d="M358.839 56.1606L442.868 7.13898C465.513 -6.06353 477.42 5.71476 480.04 8.79108C480.46 9.27882 480.797 9.83212 481.037 10.4289C483.886 17.664 472.62 29.7556 421.049 59.8208C375.617 86.3256 340.439 84.6022 330.583 83.4202C330.03 83.3536 329.498 83.1626 329.03 82.8613C328.561 82.5601 328.166 82.1565 327.875 81.6809C327.585 81.2053 327.406 80.67 327.352 80.1153C327.298 79.5606 327.37 79.0008 327.564 78.4781C329.671 72.9379 338.957 67.711 338.957 67.711L358.839 56.1606Z" fill="white" stroke="#263238" stroke-width="1.11813" stroke-linecap="round" stroke-linejoin="round"/>
<path d="M448.067 14.188L455.146 10.1432" stroke="#263238" stroke-width="1.11813" stroke-linecap="round" stroke-linejoin="round"/>
<path d="M345.709 72.7929L445.547 15.639" stroke="#263238" stroke-width="1.11813" stroke-linecap="round" stroke-linejoin="round"/>
<path d="M381.756 55.2481L400.143 44.4953C401.072 43.9639 401.777 43.1154 402.13 42.1054C402.484 41.0955 402.461 39.9921 402.066 38.9978C401.24 36.9897 399.217 34.7251 394.574 33.4861L287.986 12.2225C287.298 12.1014 286.594 12.1014 285.906 12.2225L278.045 13.5328C277.912 13.5506 277.79 13.6121 277.697 13.7076C277.603 13.803 277.545 13.9269 277.53 14.0595C277.515 14.1921 277.545 14.3259 277.615 14.4395C277.685 14.553 277.791 14.64 277.916 14.6864L381.756 55.2481Z" fill="white"/>
<path d="M353.97 65.7996C353.357 66.1414 352.816 65.7996 352.745 65.0448L352.617 63.6206C352.587 63.2262 352.661 62.8311 352.831 62.4741C353.001 62.117 353.261 61.8102 353.585 61.5839C354.183 61.2279 354.739 61.5839 354.81 62.3388L354.938 63.763C354.964 64.157 354.889 64.5511 354.72 64.9077C354.55 65.2643 354.292 65.5714 353.97 65.7996Z" fill="#263238"/>
<path d="M358.257 63.2938C357.644 63.6499 357.103 63.2938 357.032 62.539L356.904 61.1148C356.873 60.7222 356.946 60.3285 357.116 59.9734C357.286 59.6183 357.547 59.3143 357.872 59.0924C358.471 58.7363 359.026 59.0924 359.097 59.8472L359.225 61.2714C359.249 61.6631 359.173 62.0543 359.003 62.4082C358.834 62.7621 358.577 63.0669 358.257 63.2938Z" fill="#263238"/>
<path d="M362.543 60.7873C361.931 61.1433 361.39 60.7873 361.318 60.0467L361.19 58.6225C361.161 58.2281 361.235 57.833 361.405 57.4759C361.575 57.1189 361.835 56.8121 362.159 56.5858C362.757 56.2298 363.312 56.5858 363.384 57.3407L363.512 58.7649C363.538 59.1569 363.463 59.5491 363.293 59.9034C363.124 60.2578 362.865 60.5623 362.543 60.7873Z" fill="#263238"/>
<path d="M366.831 58.2546C366.218 58.6106 365.677 58.2546 365.606 57.4997L365.478 56.0755C365.447 55.683 365.52 55.2893 365.69 54.9341C365.86 54.579 366.121 54.2751 366.446 54.0531C367.044 53.6971 367.6 54.0531 367.671 54.808L367.799 56.2322C367.823 56.6238 367.747 57.0151 367.577 57.3689C367.408 57.7228 367.151 58.0276 366.831 58.2546Z" fill="#263238"/>
<path d="M371.117 55.8034C370.505 56.1452 369.963 55.8034 369.892 55.0486L369.764 53.6244C369.735 53.23 369.809 52.8349 369.979 52.4778C370.148 52.1208 370.408 51.814 370.732 51.5877C371.331 51.2317 371.886 51.5877 371.957 52.3426L372.085 53.7668C372.112 54.1608 372.037 54.5549 371.867 54.9115C371.697 55.2681 371.439 55.5752 371.117 55.8034Z" fill="#263238"/>
<path d="M403.818 36.7331C403.206 37.0749 402.664 36.7331 402.593 35.9783L402.465 34.554C402.439 34.1601 402.514 33.7659 402.684 33.4093C402.853 33.0528 403.111 32.7456 403.434 32.5174C404.032 32.1614 404.587 32.5174 404.658 33.2722L404.787 34.6965C404.813 35.0904 404.738 35.4846 404.568 35.8412C404.399 36.1978 404.14 36.5049 403.818 36.7331Z" fill="#263238"/>
<path d="M408.104 34.2254C407.492 34.5814 406.95 34.2254 406.879 33.4706L406.751 32.0463C406.72 31.6538 406.793 31.2601 406.963 30.905C407.134 30.5498 407.394 30.2459 407.72 30.0239C408.318 29.6679 408.873 30.0239 408.944 30.7788L409.073 32.203C409.096 32.5946 409.02 32.9859 408.85 33.3398C408.681 33.6936 408.424 33.9984 408.104 34.2254Z" fill="#263238"/>
<path d="M412.391 31.7331C411.779 32.0749 411.237 31.7331 411.166 30.9783L411.038 29.554C411.009 29.1597 411.083 28.7646 411.253 28.4075C411.422 28.0504 411.682 27.7437 412.006 27.5174C412.605 27.1614 413.16 27.5174 413.231 28.2722L413.359 29.6965C413.386 30.0904 413.311 30.4846 413.141 30.8412C412.971 31.1978 412.713 31.5049 412.391 31.7331Z" fill="#263238"/>
<path d="M416.679 29.2273C416.066 29.5833 415.525 29.2273 415.454 28.4724L415.326 27.0482C415.295 26.6557 415.368 26.262 415.538 25.9069C415.708 25.5517 415.969 25.2478 416.294 25.0258C416.892 24.6698 417.448 25.0258 417.519 25.7807L417.647 27.2049C417.671 27.5965 417.595 27.9878 417.425 28.3416C417.256 28.6955 416.999 29.0003 416.679 29.2273Z" fill="#263238"/>
<path d="M420.965 26.7208C420.353 27.0768 419.812 26.7207 419.74 25.9802L419.612 24.5559C419.583 24.1616 419.657 23.7665 419.827 23.4094C419.997 23.0523 420.256 22.7456 420.581 22.5193C421.179 22.1632 421.734 22.5193 421.805 23.2741L421.934 24.6984C421.96 25.0903 421.885 25.4826 421.715 25.8369C421.546 26.1913 421.287 26.4957 420.965 26.7208Z" fill="#263238"/>
<path d="M425.551 24.0732C424.953 24.415 424.397 24.0732 424.326 23.3184L424.198 21.8941C424.172 21.5002 424.247 21.106 424.416 20.7494C424.586 20.3928 424.844 20.0857 425.166 19.8575C425.779 19.5014 426.32 19.8575 426.391 20.6123L426.519 22.0366C426.546 22.4305 426.471 22.8247 426.301 23.1813C426.131 23.5378 425.873 23.845 425.551 24.0732Z" fill="#263238"/>
<path d="M429.837 21.5524C429.239 21.9085 428.684 21.5524 428.612 20.7976L428.484 19.3734C428.458 18.9814 428.533 18.5892 428.703 18.2348C428.872 17.8804 429.131 17.576 429.453 17.351C430.065 16.9949 430.606 17.351 430.678 18.1058L430.806 19.53C430.83 19.9217 430.753 20.3129 430.584 20.6668C430.414 21.0207 430.157 21.3255 429.837 21.5524Z" fill="#263238"/>
<path d="M434.124 19.0582C433.526 19.4 432.97 19.0582 432.899 18.3034L432.771 16.8792C432.744 16.4852 432.82 16.0911 432.989 15.7345C433.159 15.3779 433.417 15.0708 433.739 14.8425C434.337 14.4865 434.893 14.8425 434.964 15.5974L435.092 17.0216C435.119 17.4156 435.043 17.8097 434.874 18.1663C434.704 18.5229 434.446 18.83 434.124 19.0582Z" fill="#263238"/>
<path d="M438.411 16.5505C437.799 16.9066 437.257 16.5505 437.186 15.7957L437.058 14.3715C437.031 13.9795 437.107 13.5873 437.276 13.2329C437.446 12.8785 437.704 12.5741 438.026 12.3491C438.625 11.993 439.18 12.3491 439.251 13.1039L439.379 14.5281C439.403 14.9198 439.327 15.311 439.157 15.6649C438.988 16.0188 438.731 16.3236 438.411 16.5505Z" fill="#263238"/>
<path d="M442.699 14.1032C442.087 14.445 441.545 14.1032 441.474 13.3483L441.346 11.9241C441.32 11.5301 441.395 11.136 441.564 10.7794C441.734 10.4228 441.992 10.1157 442.314 9.88747C442.913 9.53141 443.468 9.88747 443.539 10.6423L443.667 12.0665C443.694 12.4605 443.619 12.8546 443.449 13.2112C443.279 13.5678 443.021 13.8749 442.699 14.1032Z" fill="#263238"/>
<path d="M459.961 3.20538C458.491 3.94563 457.187 4.97786 456.13 6.23897C456.13 6.23897 457.967 5.86868 460.616 5.48414L459.961 3.20538Z" fill="#263238"/>
<path d="M466.639 4.84487C469.211 4.6308 471.799 4.69287 474.358 5.03002C471.877 3.41883 469.053 2.41379 466.112 2.09613L466.639 4.84487Z" fill="#263238"/>
<path d="M363.113 35.3649L360.265 37.7006C359.857 40.0583 360.295 42.4843 361.502 44.5505C362.708 46.6168 364.605 48.1907 366.859 48.9947C373.189 46.7151 379.393 44.1004 385.445 41.1615C388.706 39.2673 389.29 34.2113 386.769 29.8817C384.248 25.5521 379.648 23.7148 376.301 25.4666C371.706 28.5311 367.293 31.8599 363.085 35.4361" fill="white"/>
<path d="M384.348 30.9928C386.071 33.9409 385.672 37.4018 383.451 38.6836C381.229 39.9654 378.024 38.6836 376.329 35.6785C374.635 32.6734 375.005 29.2695 377.227 27.9734C379.448 26.6774 382.624 28.0304 384.348 30.9928Z" fill="#263238"/>
<path d="M446.801 51.8439C441.762 55.3036 436.908 59.026 432.26 62.9956C431.889 65.1301 432.284 67.327 433.376 69.1981C434.468 71.0693 436.186 72.4943 438.227 73.2215C443.967 71.1508 449.591 68.7737 455.076 66.1004C458.024 64.3913 458.551 59.8196 456.272 55.8887C453.993 51.9579 449.735 50.1349 446.801 51.8439Z" fill="white"/>
<path d="M446.801 51.8439C441.762 55.3036 436.908 59.026 432.26 62.9956C431.889 65.1301 432.284 67.327 433.376 69.1981C434.468 71.0693 436.186 72.4943 438.227 73.2215C443.967 71.1508 449.591 68.7737 455.076 66.1004C458.024 64.3913 458.551 59.8196 456.272 55.8887C453.993 51.9579 449.735 50.1349 446.801 51.8439Z" fill="white"/>
<path d="M454.534 56.7416C456.172 59.5901 455.787 62.8515 453.68 64.0763C451.572 65.3012 448.51 64.0763 446.858 61.2279C445.206 58.3795 445.604 55.118 447.712 53.8789C449.82 52.6399 452.839 53.9786 454.534 56.7416Z" fill="#263238"/>
<path d="M339.1 72.2669L303.907 63.508C303.208 63.3587 302.485 63.3587 301.785 63.508L297.413 64.2343C297.201 64.2698 297.008 64.3754 296.864 64.5342C296.72 64.693 296.633 64.8956 296.618 65.1095C296.604 65.3234 296.661 65.5361 296.782 65.7132C296.903 65.8903 297.08 66.0216 297.285 66.0858L331.651 76.682L339.1 72.2669Z" fill="white"/>
<path d="M464.546 2.05499C463.421 2.0901 462.308 2.29168 461.242 2.65316L461.982 5.30221C462.965 5.17403 464.019 5.0601 465.101 4.9604L464.546 2.05499Z" fill="#263238"/>
<path d="M370.918 28.5419L288.613 12.1348C287.729 11.9099 286.81 11.8567 285.907 11.9782L278.045 13.2885C277.915 13.3118 277.796 13.3766 277.705 13.4732C277.615 13.5698 277.559 13.693 277.544 13.8245C277.53 13.9559 277.558 14.0885 277.625 14.2024C277.693 14.3162 277.795 14.4053 277.917 14.4563L381.757 55.0323" stroke="#263238" stroke-width="1.11813" stroke-linecap="round" stroke-linejoin="round"/>
<path d="M402.122 38.7841C401.473 37.4186 400.517 36.2218 399.329 35.2878C398.14 34.3537 396.751 33.7078 395.271 33.4006L387.937 31.9764" stroke="#263238" stroke-width="1.11813" stroke-linecap="round" stroke-linejoin="round"/>
<path d="M387.895 32.1906C387.62 31.2867 387.243 30.417 386.77 29.5986C384.235 25.3259 379.649 23.4317 376.302 25.1835C371.711 28.2533 367.298 31.5819 363.085 35.153" stroke="#263238" stroke-width="1.11813" stroke-linecap="round" stroke-linejoin="round"/>
<path d="M374.194 45.9334C378.055 44.505 381.814 42.8157 385.445 40.8774C388.066 39.3535 388.963 35.7929 387.895 32.1896" stroke="#263238" stroke-width="1.11813" stroke-linecap="round" stroke-linejoin="round"/>
<path d="M367.799 48.4259L370.918 47.2438" stroke="#263238" stroke-width="1.11813" stroke-linecap="round" stroke-linejoin="round"/>
<path d="M400.143 44.2808C402.607 42.4008 403.063 40.6063 402.066 38.7833" stroke="#263238" stroke-width="1.11813" stroke-linecap="round" stroke-linejoin="round"/>
<path d="M395.13 47.2428L397.366 45.9326" stroke="#263238" stroke-width="1.11813" stroke-linecap="round" stroke-linejoin="round"/>
<path d="M438.853 57.6553C436.774 59.2789 434.481 61.1162 432.259 62.9962" stroke="#263238" stroke-width="1.11813" stroke-linecap="round" stroke-linejoin="round"/>
<path d="M442.285 55.0347L440.377 56.4589" stroke="#263238" stroke-width="1.11813" stroke-linecap="round" stroke-linejoin="round"/>
<path d="M433.37 69.1884C434.415 71.1024 436.152 72.5444 438.226 73.219C443.966 71.1483 449.59 68.7712 455.075 66.0979C458.023 64.3888 458.55 59.8171 456.271 55.8862C453.992 51.9554 449.734 50.1893 446.8 51.8842C446.344 52.1548 445.376 52.8099 444.094 53.7499" stroke="#263238" stroke-width="1.11813" stroke-linecap="round" stroke-linejoin="round"/>
<path d="M339.1 72.2669L303.907 63.508C303.208 63.3587 302.485 63.3587 301.785 63.508L297.413 64.2343C297.201 64.2698 297.008 64.3754 296.864 64.5342C296.72 64.693 296.633 64.8956 296.618 65.1095C296.604 65.3234 296.661 65.5361 296.782 65.7132C296.903 65.8903 297.08 66.0216 297.285 66.0858L331.651 76.682" fill="white"/>
<path d="M339.1 72.2669L303.907 63.508C303.208 63.3587 302.485 63.3587 301.785 63.508L297.413 64.2343C297.201 64.2698 297.008 64.3754 296.864 64.5342C296.72 64.693 296.633 64.8956 296.618 65.1095C296.604 65.3234 296.661 65.5361 296.782 65.7132C296.903 65.8903 297.08 66.0216 297.285 66.0858L331.651 76.682" stroke="#263238" stroke-width="1.11813" stroke-linecap="round" stroke-linejoin="round"/>
</svg>
