<svg width="24" height="24" viewBox="0 0 24 24" fill="none" xmlns="http://www.w3.org/2000/svg">
<mask id="path-1-inside-1_1114_60054" fill="white">
<path d="M19.875 6H4.125C3.82663 6 3.54048 6.12085 3.3295 6.33597C3.11853 6.55108 3 6.84284 3 7.14706V17.8529C3 18.1572 3.11853 18.4489 3.3295 18.664C3.54048 18.8791 3.82663 19 4.125 19H19.875C20.1734 19 20.4595 18.8791 20.6705 18.664C20.8815 18.4489 21 18.1572 21 17.8529V7.14706C21 6.84284 20.8815 6.55108 20.6705 6.33597C20.4595 6.12085 20.1734 6 19.875 6ZM19.635 6.76471L12 12.7829L4.365 6.76471H19.635ZM3.75 17.6962V7.24647L9.52875 11.8003L3.75 17.6962ZM4.27875 18.2353L10.125 12.2744L11.7675 13.5706C11.8331 13.6221 11.9135 13.65 11.9963 13.65C12.079 13.65 12.1594 13.6221 12.225 13.5706L13.875 12.2744L19.7213 18.2353H4.27875ZM20.25 17.6962L14.4713 11.8003L20.25 7.24647V17.6962Z"/>
</mask>
<path d="M19.875 6H4.125C3.82663 6 3.54048 6.12085 3.3295 6.33597C3.11853 6.55108 3 6.84284 3 7.14706V17.8529C3 18.1572 3.11853 18.4489 3.3295 18.664C3.54048 18.8791 3.82663 19 4.125 19H19.875C20.1734 19 20.4595 18.8791 20.6705 18.664C20.8815 18.4489 21 18.1572 21 17.8529V7.14706C21 6.84284 20.8815 6.55108 20.6705 6.33597C20.4595 6.12085 20.1734 6 19.875 6ZM19.635 6.76471L12 12.7829L4.365 6.76471H19.635ZM3.75 17.6962V7.24647L9.52875 11.8003L3.75 17.6962ZM4.27875 18.2353L10.125 12.2744L11.7675 13.5706C11.8331 13.6221 11.9135 13.65 11.9963 13.65C12.079 13.65 12.1594 13.6221 12.225 13.5706L13.875 12.2744L19.7213 18.2353H4.27875ZM20.25 17.6962L14.4713 11.8003L20.25 7.24647V17.6962Z" fill="#A3A3A3"/>
<path d="M3 7.14706H2H3ZM3 17.8529H2H3ZM19.635 6.76471L20.254 7.55006L22.519 5.76471H19.635V6.76471ZM12 12.7829L11.381 13.5683L12 14.0563L12.619 13.5683L12 12.7829ZM4.365 6.76471V5.76471H1.48097L3.74595 7.55006L4.365 6.76471ZM3.75 17.6962H2.75V20.1451L4.46417 18.3962L3.75 17.6962ZM3.75 7.24647L4.36895 6.46104L2.75 5.18526V7.24647H3.75ZM9.52875 11.8003L10.2429 12.5003L11.0229 11.7045L10.1477 11.0149L9.52875 11.8003ZM4.27875 18.2353L3.56481 17.5351L1.8973 19.2353H4.27875V18.2353ZM10.125 12.2744L10.7445 11.4894L10.0397 10.9332L9.41106 11.5742L10.125 12.2744ZM11.7675 13.5706L11.148 14.3556L11.1501 14.3572L11.7675 13.5706ZM12.225 13.5706L12.8424 14.3572L12.8427 14.357L12.225 13.5706ZM13.875 12.2744L14.5889 11.5742L13.9617 10.9347L13.2573 11.488L13.875 12.2744ZM19.7213 18.2353V19.2353H22.1027L20.4352 17.5351L19.7213 18.2353ZM20.25 17.6962L19.5358 18.3962L21.25 20.1451V17.6962H20.25ZM14.4713 11.8003L13.8523 11.0149L12.9771 11.7045L13.7571 12.5003L14.4713 11.8003ZM20.25 7.24647H21.25V5.18526L19.6311 6.46104L20.25 7.24647ZM19.875 5H4.125V7H19.875V5ZM4.125 5C3.55508 5 3.01252 5.23102 2.61557 5.63576L4.04344 7.03617C4.06845 7.01068 4.09818 7 4.125 7V5ZM2.61557 5.63576C2.21926 6.03983 2 6.58382 2 7.14706H4C4 7.10186 4.01779 7.06233 4.04344 7.03617L2.61557 5.63576ZM2 7.14706V17.8529H4V7.14706H2ZM2 17.8529C2 18.4162 2.21926 18.9602 2.61557 19.3642L4.04344 17.9638C4.01779 17.9377 4 17.8981 4 17.8529H2ZM2.61557 19.3642C3.01252 19.769 3.55508 20 4.125 20V18C4.09818 18 4.06845 17.9893 4.04344 17.9638L2.61557 19.3642ZM4.125 20H19.875V18H4.125V20ZM19.875 20C20.4449 20 20.9875 19.769 21.3844 19.3642L19.9566 17.9638C19.9316 17.9893 19.9018 18 19.875 18V20ZM21.3844 19.3642C21.7807 18.9602 22 18.4162 22 17.8529H20C20 17.8981 19.9822 17.9377 19.9566 17.9638L21.3844 19.3642ZM22 17.8529V7.14706H20V17.8529H22ZM22 7.14706C22 6.58382 21.7807 6.03983 21.3844 5.63576L19.9566 7.03617C19.9822 7.06233 20 7.10186 20 7.14706H22ZM21.3844 5.63576C20.9875 5.23102 20.4449 5 19.875 5V7C19.9018 7 19.9316 7.01068 19.9566 7.03617L21.3844 5.63576ZM19.016 5.97935L11.381 11.9976L12.619 13.5683L20.254 7.55006L19.016 5.97935ZM12.619 11.9976L4.98405 5.97935L3.74595 7.55006L11.381 13.5683L12.619 11.9976ZM4.365 7.76471H19.635V5.76471H4.365V7.76471ZM4.75 17.6962V7.24647H2.75V17.6962H4.75ZM3.13105 8.0319L8.9098 12.5857L10.1477 11.0149L4.36895 6.46104L3.13105 8.0319ZM8.81458 11.1003L3.03583 16.9962L4.46417 18.3962L10.2429 12.5003L8.81458 11.1003ZM4.99269 18.9355L10.8389 12.9746L9.41106 11.5742L3.56481 17.5351L4.99269 18.9355ZM9.50551 13.0594L11.148 14.3556L12.387 12.7856L10.7445 11.4894L9.50551 13.0594ZM11.1501 14.3572C11.3904 14.5458 11.6878 14.65 11.9963 14.65V12.65C12.1392 12.65 12.2758 12.6983 12.3849 12.784L11.1501 14.3572ZM11.9963 14.65C12.3047 14.65 12.6021 14.5458 12.8424 14.3572L11.6076 12.784C11.7167 12.6983 11.8533 12.65 11.9963 12.65V14.65ZM12.8427 14.357L14.4927 13.0608L13.2573 11.488L11.6073 12.7842L12.8427 14.357ZM13.1611 12.9746L19.0073 18.9355L20.4352 17.5351L14.5889 11.5742L13.1611 12.9746ZM19.7213 17.2353H4.27875V19.2353H19.7213V17.2353ZM20.9642 16.9962L15.1854 11.1003L13.7571 12.5003L19.5358 18.3962L20.9642 16.9962ZM15.0902 12.5857L20.8689 8.0319L19.6311 6.46104L13.8523 11.0149L15.0902 12.5857ZM19.25 7.24647V17.6962H21.25V7.24647H19.25Z" fill="#A3A3A3" mask="url(#path-1-inside-1_1114_60054)"/>
</svg>
